<svg xmlns="http://www.w3.org/2000/svg" viewBox="0 0 400 400">
  <defs>
    <linearGradient id="g" x1="0" y1="0" x2="1" y2="1"><stop offset="0" stop-color="#fbe7b5"/><stop offset=".45" stop-color="#e2b866"/><stop offset=".8" stop-color="#b98535"/><stop offset="1" stop-color="#f0cf85"/></linearGradient>
    <linearGradient id="d" x1="0" y1="0" x2="1" y2="1"><stop offset="0" stop-color="#fff"/><stop offset=".5" stop-color="#eef2f6"/><stop offset="1" stop-color="#c9d3dd"/></linearGradient>
    <radialGradient id="s" cx=".5" cy=".5" r=".5"><stop offset="0" stop-color="#3a2410" stop-opacity=".18"/><stop offset="1" stop-color="#3a2410" stop-opacity="0"/></radialGradient>
  </defs>
  <ellipse cx="200" cy="350" rx="90" ry="10" fill="url(#s)"/>
  <path d="M104 30 Q 150 150 200 188 Q 250 150 296 30" fill="none" stroke="url(#g)" stroke-width="4" stroke-linecap="round" stroke-dasharray="1 7"/>
  <rect x="193" y="186" width="14" height="22" rx="7" fill="none" stroke="url(#g)" stroke-width="5"/>
  <path d="M200 210 C 156 252 160 306 200 320 C 240 306 244 252 200 210 Z" fill="url(#g)" stroke="#9c6d27" stroke-width="1.4"/>
  <path d="M200 232 C 172 262 175 296 200 304 C 225 296 228 262 200 232 Z" fill="url(#d)" stroke="#aab5c0"/>
  <path d="M200 232 V304 M178 268 H222 M186 250 L214 290 M214 250 L186 290" stroke="#c4ced8" stroke-width=".9"/>
</svg>
